<svg width="29" height="29" viewBox="0 0 29 29" fill="none" xmlns="http://www.w3.org/2000/svg">
<g clip-path="url(#clip0_21_9214)">
<path d="M14.5 29C22.5081 29 29 22.5081 29 14.5C29 6.49187 22.5081 0 14.5 0C6.49187 0 0 6.49187 0 14.5C0 22.5081 6.49187 29 14.5 29Z" fill="#F0F0F0"/>
<path d="M19.5434 14.5C19.5434 15.7609 17.2854 18.913 14.5 18.913C11.7146 18.913 9.45654 15.7609 9.45654 14.5C9.45654 11.7145 11.7146 9.45654 14.5 9.45654C17.2854 9.45654 19.5434 11.7145 19.5434 14.5Z" fill="#D80027"/>
<path d="M19.5434 14.5C19.5434 17.2855 17.2854 19.5435 14.5 19.5435C11.7146 19.5435 9.45654 17.2855 9.45654 14.5" fill="#0052B4"/>
<path d="M19.8455 18.9581L21.1826 17.6209L22.074 18.5124L20.7369 19.8495L19.8455 18.9581Z" fill="black"/>
<path d="M17.6162 21.1867L18.9534 19.8496L19.8448 20.741L18.5077 22.0782L17.6162 21.1867Z" fill="black"/>
<path d="M22.52 21.6322L23.8572 20.2951L24.7486 21.1865L23.4115 22.5237L22.52 21.6322Z" fill="black"/>
<path d="M20.2908 23.8612L21.6279 22.5241L22.5194 23.4155L21.1822 24.7527L20.2908 23.8612Z" fill="black"/>
<path d="M21.1826 20.2953L22.5198 18.9581L23.4112 19.8496L22.0741 21.1867L21.1826 20.2953Z" fill="black"/>
<path d="M18.9541 22.5239L20.2912 21.1867L21.1827 22.0782L19.8455 23.4153L18.9541 22.5239Z" fill="black"/>
<path d="M22.5259 10.0444L18.9602 6.47865L19.8516 5.58721L23.4173 9.15293L22.5259 10.0444Z" fill="black"/>
<path d="M18.9595 9.15331L17.6223 7.81617L18.5137 6.92477L19.8509 8.2619L18.9595 9.15331Z" fill="black"/>
<path d="M21.188 11.3824L19.8508 10.0453L20.7422 9.15389L22.0794 10.491L21.188 11.3824Z" fill="black"/>
<path d="M21.6335 6.47855L20.2964 5.14141L21.1878 4.24997L22.525 5.58711L21.6335 6.47855Z" fill="black"/>
<path d="M23.8633 8.70795L22.5261 7.37081L23.4176 6.47937L24.7547 7.81651L23.8633 8.70795Z" fill="black"/>
<path d="M5.14038 20.2927L8.7061 23.8585L7.81466 24.7499L4.24894 21.1842L5.14038 20.2927Z" fill="black"/>
<path d="M8.70581 21.1835L10.043 22.5206L9.15155 23.412L7.81441 22.0749L8.70581 21.1835Z" fill="black"/>
<path d="M6.47705 18.9553L7.81419 20.2925L6.92275 21.1839L5.58561 19.8468L6.47705 18.9553Z" fill="black"/>
<path d="M7.81445 17.6178L11.3802 21.1835L10.4887 22.075L6.92301 18.5092L7.81445 17.6178Z" fill="black"/>
<path d="M8.70581 5.13864L5.14009 8.70436L4.24865 7.81292L7.81437 4.2472L8.70581 5.13864Z" fill="black"/>
<path d="M10.043 6.47563L6.47725 10.0414L5.58581 9.14991L9.15153 5.58419L10.043 6.47563Z" fill="black"/>
<path d="M11.3813 7.81358L7.81563 11.3793L6.92423 10.4879L10.4899 6.92218L11.3813 7.81358Z" fill="black"/>
</g>
<defs>
<clipPath id="clip0_21_9214">
<rect width="29" height="29" fill="white"/>
</clipPath>
</defs>
</svg>
