<svg width="29" height="29" viewBox="0 0 29 29" fill="none" xmlns="http://www.w3.org/2000/svg">
<g clip-path="url(#clip0_21_9207)">
<path d="M29 14.5C29 22.5081 22.5081 29 14.5 29C6.49192 29 0 22.5081 0 14.5C4.98041 9.51959 9.20433 5.29567 14.5 0C22.5081 0 29 6.49192 29 14.5Z" fill="#D80027"/>
<path d="M14.5 14.5C14.5 6.49192 14.5 5.54784 14.5 0C6.49192 0 0 6.49192 0 14.5H14.5Z" fill="#0052B4"/>
<path d="M12.6086 8.48596L10.8378 9.31903L11.7807 11.034L9.85782 10.6661L9.6141 12.6087L8.27478 11.18L6.93534 12.6087L6.69173 10.6661L4.76878 11.0339L5.71173 9.31891L3.94092 8.48596L5.71179 7.65306L4.76878 5.93798L6.69167 6.30586L6.93539 4.36331L8.27478 5.79201L9.61416 4.36331L9.85782 6.30586L11.7808 5.93798L10.8378 7.65311L12.6086 8.48596Z" fill="#F0F0F0"/>
<path d="M8.27502 11.1848C9.76569 11.1848 10.9741 9.97634 10.9741 8.48567C10.9741 6.995 9.76569 5.78658 8.27502 5.78658C6.78435 5.78658 5.57593 6.995 5.57593 8.48567C5.57593 9.97634 6.78435 11.1848 8.27502 11.1848Z" fill="#0052B4"/>
<path d="M8.27483 9.92417C7.48181 9.92417 6.83667 9.27897 6.83667 8.48595C6.83667 7.69292 7.48186 7.04773 8.27483 7.04773C9.06786 7.04773 9.71305 7.69292 9.71305 8.48595C9.71299 9.27897 9.06774 9.92417 8.27483 9.92417Z" fill="#F0F0F0"/>
</g>
<defs>
<clipPath id="clip0_21_9207">
<rect width="29" height="29" fill="white"/>
</clipPath>
</defs>
</svg>
